<?xml version="1.0" standalone="no"?>
<!DOCTYPE svg PUBLIC "-//W3C//DTD SVG 20010904//EN"
 "http://www.w3.org/TR/2001/REC-SVG-20010904/DTD/svg10.dtd">
<svg version="1.0" xmlns="http://www.w3.org/2000/svg"
 width="500.000000pt" height="500.000000pt" viewBox="0 0 500.000000 500.000000"
 preserveAspectRatio="xMidYMid meet">
<metadata>
Created by potrace 1.11, written by Peter Selinger 2001-2013
</metadata>
<g transform="translate(0.000000,500.000000) scale(0.100000,-0.100000)"
fill="#000000" stroke="none">
<path d="M2354 4625 c-22 -13 -57 -33 -80 -46 -117 -68 -331 -192 -344 -200
-20 -12 -177 -102 -220 -126 -19 -11 -63 -37 -97 -57 -34 -20 -66 -36 -71 -36
-6 0 -12 -4 -14 -8 -2 -5 -28 -22 -58 -39 -30 -17 -71 -40 -90 -51 -98 -55
-457 -263 -470 -272 -8 -6 -27 -16 -42 -23 -16 -6 -28 -15 -28 -19 0 -4 -4 -8
-9 -8 -5 0 -55 -27 -111 -60 -56 -33 -105 -60 -110 -60 -5 0 -10 -3 -12 -7 -2
-5 -16 -15 -33 -23 l-30 -16 -1 -1075 -2 -1074 67 -39 c36 -21 77 -46 91 -55
14 -9 39 -23 55 -31 17 -8 53 -29 80 -46 28 -17 70 -42 95 -56 44 -25 344
-198 655 -378 88 -51 174 -100 190 -110 17 -9 134 -77 260 -150 399 -231 366
-214 388 -200 11 6 35 21 54 31 85 48 299 172 308 179 6 4 35 21 65 37 30 17
197 113 370 213 173 100 330 191 348 202 184 104 679 392 685 398 6 6 13 1828
8 2120 -1 34 -5 37 -97 90 -52 30 -103 60 -112 65 -10 6 -65 37 -122 70 -58
33 -113 64 -122 70 -23 13 -203 117 -248 143 -19 11 -118 68 -220 127 -102 59
-205 119 -230 133 -25 14 -126 73 -225 130 -99 58 -194 113 -210 122 -17 9
-85 49 -152 88 l-121 70 -38 -23z"/>
</g>
</svg>
